<?xml version="1.0" standalone="no"?><!DOCTYPE svg PUBLIC "-//W3C//DTD SVG 1.1//EN" "http://www.w3.org/Graphics/SVG/1.1/DTD/svg11.dtd"><svg t="1691565689540" class="icon" viewBox="0 0 1024 1024" version="1.1" xmlns="http://www.w3.org/2000/svg" p-id="3123" xmlns:xlink="http://www.w3.org/1999/xlink" width="200" height="200"><path d="M0 512a512 512 0 1 0 1024 0A512 512 0 1 0 0 512z" fill="#FFA230" p-id="3124"></path><path d="M82.286 519.314a444.343 444.343 0 1 0 888.685 0 444.343 444.343 0 1 0-888.685 0z" fill="#FFBD38" p-id="3125"></path><path d="M69.486 512a438.857 438.857 0 1 0 877.714 0 438.857 438.857 0 1 0-877.714 0z" fill="#FFBD38" p-id="3126"></path><path d="M722.286 270.629H618.057l-40.228 84.114c-27.429 54.857-42.058 89.6-45.715 100.571-1.828 7.315-3.657 12.8-5.485 18.286H524.8c-12.8-32.914-43.886-100.571-93.257-202.971H321.829L448 491.886h-95.086v65.828h117.029v51.2H352.914v67.657h117.029V768h102.4v-91.429h113.371v-67.657H572.343v-51.2h113.371v-65.828h-91.428l128-221.257z" fill="#FBFED4" p-id="3127"></path></svg>