<?xml version="1.0" standalone="no"?><!DOCTYPE svg PUBLIC "-//W3C//DTD SVG 1.1//EN" "http://www.w3.org/Graphics/SVG/1.1/DTD/svg11.dtd"><svg t="1691051834347" class="icon" viewBox="0 0 1024 1024" version="1.1" xmlns="http://www.w3.org/2000/svg" p-id="1665" xmlns:xlink="http://www.w3.org/1999/xlink" width="200" height="200"><path d="M230.844 576.6c-12.655 9.593-25.31 23.676-28.983 42.25-5.103 24.492-0.817 55.72 22.247 80.213 28.983 28.983 72.662 37.147 92.052 38.576 51.23 3.674 106.135-22.247 147.773-50.414 16.329-11.226 43.883-34.086 70.417-69.804-59.395-30.412-133.486-64.498-212.27-61.64-41.638 1.428-70.417 9.593-91.236 20.819z m752.335 135.73C1009.1 650.69 1024 583.131 1024 511.898 1024 230.028 793.972 0 512.102 0 230.028 0 0 230.028 0 512.102 0 793.972 230.028 1024 512.102 1024c170.633 0 321.263-83.888 414.744-212.27-88.378-43.067-233.09-115.728-322.896-158.795C561.7 701.921 498.63 750.09 427.398 770.91c-44.495 13.266-85.316 18.573-126.954 9.592-42.25-8.98-72.662-28.166-90.623-47.556-8.98-10.41-19.39-22.248-27.554-37.76 0.816 0.817 0.816 2.245 0.816 3.062 0 0-4.49-7.348-7.348-19.39-1.428-5.92-3.061-11.838-3.674-17.758-0.816-4.49-0.816-8.98 0-12.654-0.816-7.348 0-15.512 1.43-23.676 4.49-20.82 12.654-43.883 35.718-65.314 48.985-48.17 115.115-50.415 149.201-50.415 50.414 0.817 137.976 22.248 212.27 48.986 20.82-43.883 34.086-89.807 42.25-121.647H304.934v-33.474h157.978v-66.742H272.277v-34.086h190.635v-66.743c0-8.98 2.246-16.328 16.329-16.328h74.907v83.07h207.168v33.474H554.352v66.743h165.53s-17.145 92.664-68.376 184.104C766.622 627.014 929.091 690.899 983.18 712.33z m0 0" fill="#06B4FD" p-id="1666"></path></svg>