<?xml version="1.0" standalone="no"?><!DOCTYPE svg PUBLIC "-//W3C//DTD SVG 1.1//EN" "http://www.w3.org/Graphics/SVG/1.1/DTD/svg11.dtd"><svg t="1691051705086" class="icon" viewBox="0 0 1024 1024" version="1.1" xmlns="http://www.w3.org/2000/svg" p-id="21694" xmlns:xlink="http://www.w3.org/1999/xlink" width="200" height="200"><path d="M337.715 385.229c16.999 0 29.287-12.288 29.287-30.515s-12.288-29.287-29.287-29.287-35.43 12.288-35.43 29.287c0 18.227 17.203 30.515 35.43 30.515z m164.455-59.802c-16.999 0-35.43 12.288-35.43 29.287 0 18.227 18.226 30.515 35.43 30.515 18.227 0 29.286-12.288 29.286-30.515 0-16.999-10.854-29.287-29.286-29.287zM708.198 547.43c18.228 0 29.287-12.288 29.287-24.37 0-12.289-12.288-24.372-29.287-24.372-12.288 0-23.142 12.288-23.142 24.371s12.288 24.371 23.142 24.371z m-129.228 0c18.227 0 29.286-12.288 29.286-24.37 0-12.289-12.288-24.372-29.286-24.372-12.288 0-23.143 12.288-23.143 24.371s11.06 24.371 23.143 24.371zM0 512c0 282.829 229.171 512 512 512s512-229.171 512-512S793.6 0 510.771 0C229.171 0 0 229.171 0 512z m628.94-121.856c-112.23 0-199.884 85.402-199.884 189.03 0 16.999 2.458 34.202 7.373 49.972-7.373 1.228-14.541 1.228-21.914 1.228-29.286 0-53.657-6.144-82.944-12.288l-82.944 41.37 23.143-71.885c-58.573-41.37-93.799-95.027-93.799-160.973 0-113.459 106.087-203.57 235.315-203.57 115.712 0 217.088 71.884 237.773 168.14-6.144 0.205-14.745-1.024-22.118-1.024zM844.8 576.512c0 53.658-35.43 101.171-82.944 137.83l18.227 59.802-64.512-35.43c-23.142 6.144-47.513 12.288-70.656 12.288-112.23 0-201.113-78.03-201.113-173.056 0-95.028 89.088-173.056 201.113-173.056C749.773 403.456 844.8 481.485 844.8 576.512z m0 0" fill="#04D102" p-id="21695"></path></svg>